<svg width="44" height="44" viewBox="0 0 44 44" fill="none" xmlns="http://www.w3.org/2000/svg">
<rect width="44" height="44" rx="14" fill="#002B5B" fill-opacity="0.05"/>
<path d="M25.6288 25.3911L26.0848 24.9381L25.0258 23.8741L24.5718 24.3271L25.6288 25.3911ZM27.6138 24.7481L29.5248 25.7871L30.2398 24.4691L28.3298 23.4311L27.6138 24.7481ZM29.8918 27.8511L28.4718 29.2641L29.5288 30.3271L30.9488 28.9151L29.8918 27.8511ZM27.6058 29.7181C26.1558 29.8541 22.4058 29.7331 18.3438 25.6951L17.2858 26.7581C21.7178 31.1651 25.9368 31.3811 27.7458 31.2121L27.6058 29.7181ZM18.3438 25.6951C14.4728 21.8451 13.8308 18.6081 13.7508 17.2031L12.2528 17.2881C12.3528 19.0561 13.1478 22.6441 17.2858 26.7581L18.3438 25.6951ZM19.7188 19.5151L20.0058 19.2291L18.9498 18.1661L18.6628 18.4511L19.7188 19.5151ZM20.2338 15.5941L18.9738 13.9101L17.7728 14.8101L19.0328 16.4931L20.2338 15.5941ZM14.7328 13.5431L13.1628 15.1031L14.2208 16.1671L15.7898 14.6071L14.7328 13.5431ZM19.1908 18.9831C18.6608 18.4511 18.6608 18.4511 18.6608 18.4531H18.6588L18.6558 18.4571C18.6082 18.505 18.5657 18.5576 18.5288 18.6141C18.4748 18.6941 18.4158 18.7991 18.3658 18.9321C18.244 19.2754 18.2137 19.6445 18.2778 20.0031C18.4118 20.8681 19.0078 22.0111 20.5338 23.5291L21.5918 22.4651C20.1628 21.0451 19.8228 20.1811 19.7598 19.7731C19.7298 19.5791 19.7608 19.4831 19.7698 19.4611C19.7758 19.4477 19.7758 19.4457 19.7698 19.4551C19.7609 19.4689 19.7508 19.4819 19.7398 19.4941L19.7298 19.5041L19.7198 19.5131L19.1908 18.9831ZM20.5338 23.5291C22.0608 25.0471 23.2098 25.6391 24.0758 25.7711C24.5188 25.8391 24.8758 25.7851 25.1468 25.6841C25.2986 25.6285 25.4404 25.5488 25.5668 25.4481L25.6168 25.4031L25.6238 25.3971L25.6268 25.3941L25.6278 25.3921C25.6278 25.3921 25.6288 25.3911 25.0998 24.8591C24.5698 24.3271 24.5728 24.3261 24.5728 24.3261L24.5768 24.3221L24.5828 24.3171L24.5928 24.3071L24.6308 24.2771C24.6401 24.2711 24.6378 24.2717 24.6238 24.2791C24.5988 24.2881 24.5008 24.3191 24.3038 24.2891C23.8898 24.2251 23.0198 23.8851 21.5918 22.4651L20.5338 23.5291ZM18.9738 13.9091C17.9538 12.5491 15.9498 12.3331 14.7328 13.5431L15.7898 14.6071C16.3218 14.0781 17.2658 14.1331 17.7728 14.8101L18.9738 13.9091ZM13.7518 17.2041C13.7318 16.8581 13.8908 16.4961 14.2208 16.1681L13.1618 15.1041C12.6248 15.6381 12.2018 16.3941 12.2528 17.2881L13.7518 17.2041ZM28.4718 29.2641C28.1978 29.5381 27.9018 29.6921 27.6068 29.7191L27.7458 31.2121C28.4808 31.1431 29.0818 30.7731 29.5298 30.3281L28.4718 29.2641ZM20.0058 19.2291C20.9908 18.2501 21.0638 16.7031 20.2348 15.5951L19.0338 16.4941C19.4368 17.0331 19.3768 17.7401 18.9488 18.1671L20.0058 19.2291ZM29.5258 25.7881C30.3428 26.2321 30.4698 27.2781 29.8928 27.8521L30.9508 28.9151C32.2908 27.5821 31.8778 25.3591 30.2408 24.4701L29.5258 25.7881ZM26.0848 24.9391C26.4688 24.5571 27.0868 24.4631 27.6148 24.7491L28.3308 23.4321C27.2468 22.8421 25.9028 23.0051 25.0268 23.8751L26.0848 24.9391Z" fill="#002B5B"/>
</svg>
