<svg width="44" height="44" viewBox="0 0 44 44" fill="none" xmlns="http://www.w3.org/2000/svg">
<rect width="44" height="44" rx="14" fill="#002B5B" fill-opacity="0.05"/>
<path d="M15.856 16.8399C15.7417 16.7783 15.6134 16.7474 15.4837 16.7502C15.3539 16.753 15.2271 16.7894 15.1156 16.856C15.0042 16.9225 14.9119 17.0168 14.8478 17.1296C14.7837 17.2425 14.75 17.3701 14.75 17.4999V26.9999C14.75 27.1988 14.829 27.3896 14.9696 27.5302C15.1103 27.6709 15.3011 27.7499 15.5 27.7499C15.6989 27.7499 15.8896 27.6709 16.0303 27.5302C16.1709 27.3896 16.25 27.1988 16.25 26.9999V18.7559L21.644 21.6599C21.866 21.7799 22.134 21.7799 22.356 21.6599L27.75 18.7559V26.9999C27.75 27.1988 27.829 27.3896 27.9696 27.5302C28.1103 27.6709 28.3011 27.7499 28.5 27.7499C28.6989 27.7499 28.8896 27.6709 29.0303 27.5302C29.1709 27.3896 29.25 27.1988 29.25 26.9999V17.4999C29.2499 17.3701 29.2162 17.2425 29.1521 17.1296C29.088 17.0168 28.9958 16.9225 28.8843 16.856C28.7728 16.7894 28.646 16.753 28.5162 16.7502C28.3865 16.7474 28.2582 16.7783 28.144 16.8399L22 20.1479L15.856 16.8399Z" fill="#002B5B"/>
<path fill-rule="evenodd" clip-rule="evenodd" d="M27.31 13.7219C23.777 13.4059 20.2229 13.4059 16.69 13.7219L15.172 13.8569C14.3813 13.9275 13.6374 14.2626 13.0606 14.808C12.4838 15.3534 12.1077 16.0774 11.993 16.8629C11.4948 20.2694 11.4948 23.7303 11.993 27.1369C12.1079 27.9224 12.4843 28.6462 13.0613 29.1915C13.6383 29.7367 14.3822 30.0715 15.173 30.1419L16.689 30.2779C20.223 30.5939 23.777 30.5939 27.311 30.2779L28.828 30.1419C29.6185 30.0713 30.3622 29.7364 30.939 29.1912C31.5158 28.6459 31.8921 27.9222 32.007 27.1369C32.5051 23.7303 32.5051 20.2694 32.007 16.8629C31.8922 16.0772 31.5159 15.3531 30.9389 14.8077C30.3619 14.2623 29.6179 13.9273 28.827 13.8569L27.31 13.7219ZM16.824 15.2159C20.2684 14.9072 23.7335 14.9072 27.178 15.2159L28.695 15.3519C29.1497 15.3923 29.5776 15.5848 29.9095 15.8983C30.2413 16.2119 30.4578 16.6281 30.524 17.0799C31.0011 20.3425 31.0011 23.6572 30.524 26.9199C30.4578 27.3716 30.2413 27.7879 29.9095 28.1014C29.5776 28.415 29.1497 28.6075 28.695 28.6479L27.178 28.7839C23.734 29.0919 20.268 29.0919 16.824 28.7839L15.307 28.6479C14.8522 28.6075 14.4243 28.415 14.0924 28.1014C13.7606 27.7879 13.5441 27.3716 13.478 26.9199C13.0008 23.6572 13.0008 20.3425 13.478 17.0799C13.5441 16.6281 13.7606 16.2119 14.0924 15.8983C14.4243 15.5848 14.8522 15.3923 15.307 15.3519L16.824 15.2159Z" fill="#002B5B"/>
</svg>
