<svg width="44" height="44" viewBox="0 0 44 44" fill="none" xmlns="http://www.w3.org/2000/svg">
<rect width="44" height="44" rx="14" fill="#002B5B" fill-opacity="0.05"/>
<path d="M22 12C24.1217 12 26.1566 12.8429 27.6569 14.3431C29.1571 15.8434 30 17.8783 30 20C30 26.5 22 32 22 32C22 32 14 26.5 14 20C14 17.8783 14.8429 15.8434 16.3431 14.3431C17.8434 12.8429 19.8783 12 22 12ZM22 17C21.2044 17 20.4413 17.3161 19.8787 17.8787C19.3161 18.4413 19 19.2044 19 20C19 20.7956 19.3161 21.5587 19.8787 22.1213C20.4413 22.6839 21.2044 23 22 23C22.7956 23 23.5587 22.6839 24.1213 22.1213C24.6839 21.5587 25 20.7956 25 20C25 19.2044 24.6839 18.4413 24.1213 17.8787C23.5587 17.3161 22.7956 17 22 17Z" stroke="#002B5B" stroke-width="2"/>
</svg>
