<svg width="272" height="57" viewBox="0 0 272 57" fill="none" xmlns="http://www.w3.org/2000/svg">
<g clip-path="url(#clip0_2211_287)">
<path fill-rule="evenodd" clip-rule="evenodd" d="M10.4317 39.3631V29.1512H7.13622L10.4317 23.4433V18.3777L2.68953 13.9078C2.11928 13.5785 1.46657 13.5785 0.896331 13.9078C0.326182 14.2371 -0.000228882 14.8023 -0.000228882 15.4608V36.4462L7.74192 40.9161C8.31217 41.2454 8.96489 41.2454 9.53512 40.916C10.1053 40.5868 10.4317 40.0216 10.4317 39.3631Z" fill="white"/>
<path fill-rule="evenodd" clip-rule="evenodd" d="M36.3809 39.3631V4.71676L28.6387 0.246865C28.0686 -0.0823601 27.4158 -0.0822717 26.8456 0.246909C26.2754 0.576088 25.949 1.14145 25.949 1.79981V15.4896L29.2445 21.1976H25.949V36.4462L33.6912 40.9161C34.2614 41.2454 34.9142 41.2454 35.4844 40.916C36.0545 40.5868 36.3809 40.0216 36.3809 39.3631Z" fill="white"/>
<path fill-rule="evenodd" clip-rule="evenodd" d="M23.4064 46.8541V21.1976H20.1109L23.4064 15.4896V11.5738L15.6642 7.1039C15.094 6.77468 14.4412 6.77477 13.871 7.10395C13.3008 7.43313 12.9744 7.9985 12.9744 8.65686V23.4433L16.2699 29.1512H12.9744V43.9372L20.7165 48.4072C21.2868 48.7364 21.9395 48.7364 22.5097 48.4072C23.08 48.0778 23.4064 47.5126 23.4064 46.8541Z" fill="white"/>
<path d="M-0.000228882 39.8714L21.6133 52.3498L29.293 47.9161L27.3386 44.5312H38.7267L33.0327 54.3933L31.0784 51.0083L21.6135 56.4729L1.0757 44.6158C0.391441 44.2207 -0.000228882 43.5424 -0.000228882 42.7523V39.8714Z" fill="white"/>
</g>
<path d="M60.9653 15.7456H59.7348V5.88132H60.9653V10.2153H61.3755L65.2036 5.88132H66.7485L62.4008 10.5913L66.1743 14.6382H67.5483V17.6938H66.4135V15.7456H65.5522L61.3755 11.1997H60.9653V15.7456ZM68.7993 15.7456V8.63621H69.9887V13.9204H70.0434L73.5844 8.63621H74.7602V15.7456H73.5708V10.4614H73.5161L69.9751 15.7456H68.7993ZM77.6176 15.7456H76.4282V8.63621H77.8842L80.3999 14.1733H80.4546L82.9907 8.63621H84.3852V15.7456H83.1958V10.7007H83.1479L80.8579 15.5405H79.9487L77.6655 10.7007H77.6176V15.7456ZM87.2426 15.7456H86.0532V8.63621H87.5092L90.0249 14.1733H90.0796L92.6157 8.63621H94.0102V15.7456H92.8208V10.7007H92.7729L90.4829 15.5405H89.5737L87.2905 10.7007H87.2426V15.7456ZM97.7632 15.8823C96.3481 15.8823 95.3979 15.0278 95.3979 13.7358V13.7221C95.3979 12.5122 96.3413 11.7534 97.9751 11.6577L100.012 11.5415V10.9468C100.012 10.0786 99.4448 9.55222 98.4536 9.55222C97.5376 9.55222 96.9633 9.98972 96.8266 10.6255L96.813 10.687H95.6645L95.6714 10.6118C95.7739 9.44285 96.7924 8.49949 98.4673 8.49949C100.149 8.49949 101.202 9.40867 101.202 10.8305V15.7456H100.012V14.5903H99.9848C99.5678 15.3696 98.7133 15.8823 97.7632 15.8823ZM96.6147 13.7358C96.6147 14.4194 97.1753 14.8501 98.0298 14.8501C99.1508 14.8501 100.012 14.0776 100.012 13.0454V12.4643L98.1118 12.5805C97.1616 12.6352 96.6147 13.0591 96.6147 13.7221V13.7358ZM107.908 8.63621V9.62058H105.618V15.7456H104.428V9.62058H102.138V8.63621H107.908ZM110.437 12.6147C110.287 14.5766 109.829 15.8139 108.318 15.8139C108.092 15.8139 107.915 15.7798 107.819 15.7456V14.6723C107.88 14.6928 108.01 14.7202 108.195 14.7202C108.954 14.7202 109.213 13.893 109.309 12.5874L109.589 8.63621H114.586V15.7456H113.397V9.62058H110.663L110.437 12.6147ZM116.268 15.7456V8.63621H117.457V13.9204H117.512L121.053 8.63621H122.229V15.7456H121.04V10.4614H120.985L117.444 15.7456H116.268ZM128.231 12.4643H127.957V15.7456H126.768V8.63621H127.957V11.644H128.231L131.034 8.63621H132.476L129.304 11.9995L131.704 14.7475H132.873V17.6938H131.792V15.7456H131.068L128.231 12.4643ZM136.543 15.8823C134.568 15.8823 133.249 14.4536 133.249 12.1909V12.1772C133.249 9.91453 134.575 8.49949 136.537 8.49949C138.499 8.49949 139.832 9.90769 139.832 12.1772V12.1909C139.832 14.4604 138.505 15.8823 136.543 15.8823ZM136.55 14.8296C137.801 14.8296 138.615 13.8589 138.615 12.1909V12.1772C138.615 10.5093 137.794 9.55222 136.537 9.55222C135.299 9.55222 134.465 10.5161 134.465 12.1772V12.1909C134.465 13.8657 135.292 14.8296 136.55 14.8296ZM140.604 12.7514V11.9038H141.438V8.63621H146.011V9.62058H142.627V11.9038H144.104V12.7514H142.627V15.7456H141.438V12.7514H140.604ZM150.256 15.8823C148.281 15.8823 146.961 14.4536 146.961 12.1909V12.1772C146.961 9.91453 148.288 8.49949 150.249 8.49949C152.211 8.49949 153.544 9.90769 153.544 12.1772V12.1909C153.544 14.4604 152.218 15.8823 150.256 15.8823ZM150.263 14.8296C151.514 14.8296 152.328 13.8589 152.328 12.1909V12.1772C152.328 10.5093 151.507 9.55222 150.249 9.55222C149.012 9.55222 148.178 10.5161 148.178 12.1772V12.1909C148.178 13.8657 149.005 14.8296 150.263 14.8296ZM157.249 15.8823C155.705 15.8823 154.59 15.1167 154.447 13.9546L154.44 13.8999H155.643L155.664 13.9682C155.834 14.563 156.402 14.8979 157.249 14.8979C158.234 14.8979 158.856 14.4468 158.856 13.729V13.7153C158.856 12.9565 158.336 12.6011 157.249 12.6011H156.183V11.6167H157.249C158.193 11.6167 158.665 11.2612 158.665 10.5571V10.5434C158.665 9.88035 158.165 9.48386 157.325 9.48386C156.511 9.48386 155.916 9.84617 155.807 10.3999L155.8 10.4341H154.645L154.652 10.3862C154.816 9.23777 155.848 8.49949 157.325 8.49949C158.876 8.49949 159.827 9.24461 159.827 10.4477V10.4614C159.827 11.2202 159.328 11.8559 158.603 12.02V12.0747C159.519 12.2729 160.025 12.8403 160.025 13.6606V13.6743C160.025 14.9936 158.911 15.8823 157.249 15.8823ZM163.224 12.6147C163.074 14.5766 162.616 15.8139 161.105 15.8139C160.879 15.8139 160.702 15.7798 160.606 15.7456V14.6723C160.667 14.6928 160.797 14.7202 160.982 14.7202C161.741 14.7202 162 13.893 162.096 12.5874L162.376 8.63621H167.374V15.7456H166.184V9.62058H163.45L163.224 12.6147ZM171.14 15.8823C169.725 15.8823 168.775 15.0278 168.775 13.7358V13.7221C168.775 12.5122 169.718 11.7534 171.352 11.6577L173.389 11.5415V10.9468C173.389 10.0786 172.822 9.55222 171.831 9.55222C170.915 9.55222 170.34 9.98972 170.204 10.6255L170.19 10.687H169.041L169.048 10.6118C169.151 9.44285 170.169 8.49949 171.844 8.49949C173.526 8.49949 174.579 9.40867 174.579 10.8305V15.7456H173.389V14.5903H173.362C172.945 15.3696 172.09 15.8823 171.14 15.8823ZM169.992 13.7358C169.992 14.4194 170.552 14.8501 171.407 14.8501C172.528 14.8501 173.389 14.0776 173.389 13.0454V12.4643L171.489 12.5805C170.539 12.6352 169.992 13.0591 169.992 13.7221V13.7358ZM176.226 18.1382V8.63621H177.415V9.83933H177.443C177.887 9.01218 178.68 8.49949 179.699 8.49949C181.517 8.49949 182.72 9.94871 182.72 12.1909V12.1977C182.72 14.4399 181.503 15.8823 179.719 15.8823C178.714 15.8823 177.887 15.3764 177.443 14.5561H177.415V18.1382H176.226ZM179.466 14.8296C180.724 14.8296 181.503 13.8178 181.503 12.1977V12.1909C181.503 10.5571 180.724 9.55222 179.466 9.55222C178.263 9.55222 177.409 10.5981 177.409 12.1909V12.1977C177.409 13.7837 178.27 14.8296 179.466 14.8296ZM64.9643 32.7456H63.7749V29.6352H63.7475C63.3032 30.0317 62.6333 30.23 61.9565 30.23C60.2475 30.23 59.3657 29.2593 59.3657 27.7485V25.6362H60.5551V27.6665C60.5551 28.6782 61.0952 29.1772 62.1821 29.1772C62.811 29.1772 63.4467 28.9585 63.7749 28.6303V25.6362H64.9643V32.7456ZM66.6391 32.7456V25.6362H67.8286V30.9204H67.8833L71.4243 25.6362H72.6001V32.7456H71.4106V27.4614H71.3559L67.8149 32.7456H66.6391ZM75.7309 29.4643H75.4575V32.7456H74.268V25.6362H75.4575V28.644H75.7309L78.5337 25.6362H79.976L76.8042 28.9995L79.2036 31.7475H80.3725V34.6938H79.2924V32.7456H78.5678L75.7309 29.4643ZM83.4487 32.8823C82.0337 32.8823 81.0835 32.0278 81.0835 30.7358V30.7221C81.0835 29.5122 82.0268 28.7534 83.6606 28.6577L85.6977 28.5415V27.9468C85.6977 27.0786 85.1303 26.5522 84.1391 26.5522C83.2231 26.5522 82.6489 26.9897 82.5122 27.6255L82.4985 27.687H81.3501L81.3569 27.6118C81.4594 26.4428 82.478 25.4995 84.1528 25.4995C85.8344 25.4995 86.8872 26.4087 86.8872 27.8305V32.7456H85.6977V31.5903H85.6704C85.2534 32.3696 84.3989 32.8823 83.4487 32.8823ZM82.3003 30.7358C82.3003 31.4194 82.8608 31.8501 83.7153 31.8501C84.8364 31.8501 85.6977 31.0776 85.6977 30.0454V29.4643L83.7973 29.5805C82.8471 29.6352 82.3003 30.0591 82.3003 30.7221V30.7358ZM88.5346 35.1382V25.6362H89.7241V26.8393H89.7514C90.1958 26.0122 90.9887 25.4995 92.0073 25.4995C93.8257 25.4995 95.0288 26.9487 95.0288 29.1909V29.1977C95.0288 31.4399 93.812 32.8823 92.0278 32.8823C91.0229 32.8823 90.1958 32.3764 89.7514 31.5561H89.7241V35.1382H88.5346ZM91.7749 31.8296C93.0327 31.8296 93.812 30.8178 93.812 29.1977V29.1909C93.812 27.5571 93.0327 26.5522 91.7749 26.5522C90.5717 26.5522 89.7173 27.5981 89.7173 29.1909V29.1977C89.7173 30.7837 90.5786 31.8296 91.7749 31.8296ZM96.3618 32.7456V25.6362H97.5512V30.9204H97.6059L101.147 25.6362H102.323V32.7456H101.133V27.4614H101.079L97.5376 32.7456H96.3618ZM105.966 29.6147C105.816 31.5766 105.358 32.8139 103.847 32.8139C103.622 32.8139 103.444 32.7798 103.348 32.7456V31.6723C103.41 31.6928 103.54 31.7202 103.724 31.7202C104.483 31.7202 104.743 30.893 104.838 29.5874L105.119 25.6362H110.116V32.7456H108.926V26.6206H106.192L105.966 29.6147ZM111.797 32.7456V25.6362H112.987V30.9204H113.041L116.582 25.6362H117.758V32.7456H116.569V27.4614H116.514L112.973 32.7456H111.797ZM119.426 32.7456V25.6362H120.616V31.7612H123.22V25.6362H124.41V31.7612H127.014V25.6362H128.204V32.7456H119.426ZM129.872 32.7456V25.6362H131.061V30.9204H131.116L134.657 25.6362H135.832V32.7456H134.643V27.4614H134.588L131.047 32.7456H129.872ZM142.169 32.7456V29.5532H138.69V32.7456H137.5V25.6362H138.69V28.5688H142.169V25.6362H143.359V32.7456H142.169ZM145.034 32.7456V25.6362H146.223V30.9204H146.278L149.819 25.6362H150.995V32.7456H149.805V27.4614H149.75L146.209 32.7456H145.034ZM155.937 34.6938H154.83V31.7612H155.424C155.944 31.4194 156.197 30.5376 156.265 29.5805L156.539 25.6362H161.433V31.7612H162.561V34.6938H161.454V32.7456H155.937V34.6938ZM160.244 31.7612V26.6206H157.584L157.366 29.6079C157.304 30.5034 157.12 31.2759 156.764 31.7339V31.7612H160.244ZM165.712 32.8823C164.297 32.8823 163.347 32.0278 163.347 30.7358V30.7221C163.347 29.5122 164.29 28.7534 165.924 28.6577L167.961 28.5415V27.9468C167.961 27.0786 167.394 26.5522 166.403 26.5522C165.487 26.5522 164.913 26.9897 164.776 27.6255L164.762 27.687H163.614L163.621 27.6118C163.723 26.4428 164.742 25.4995 166.416 25.4995C168.098 25.4995 169.151 26.4087 169.151 27.8305V32.7456H167.961V31.5903H167.934C167.517 32.3696 166.663 32.8823 165.712 32.8823ZM164.564 30.7358C164.564 31.4194 165.124 31.8501 165.979 31.8501C167.1 31.8501 167.961 31.0776 167.961 30.0454V29.4643L166.061 29.5805C165.111 29.6352 164.564 30.0591 164.564 30.7221V30.7358ZM170.791 32.7456V25.6362H173.833C175.166 25.6362 175.98 26.3403 175.98 27.4682V27.4819C175.98 28.2134 175.467 28.8833 174.811 29.02V29.0747C175.707 29.1977 176.294 29.8266 176.294 30.6948V30.7085C176.294 31.9594 175.365 32.7456 173.854 32.7456H170.791ZM171.981 28.6098H173.478C174.374 28.6098 174.797 28.2886 174.797 27.605V27.5913C174.797 26.9555 174.401 26.6206 173.656 26.6206H171.981V28.6098ZM171.981 31.7612H173.751C174.613 31.7612 175.078 31.3921 175.078 30.6811V30.6675C175.078 29.936 174.579 29.5942 173.54 29.5942H171.981V31.7612ZM179.494 29.6147C179.343 31.5766 178.885 32.8139 177.374 32.8139C177.149 32.8139 176.971 32.7798 176.875 32.7456V31.6723C176.937 31.6928 177.067 31.7202 177.251 31.7202C178.01 31.7202 178.27 30.893 178.366 29.5874L178.646 25.6362H183.643V32.7456H182.454V26.6206H179.719L179.494 29.6147ZM187.41 32.8823C185.995 32.8823 185.044 32.0278 185.044 30.7358V30.7221C185.044 29.5122 185.988 28.7534 187.622 28.6577L189.659 28.5415V27.9468C189.659 27.0786 189.091 26.5522 188.1 26.5522C187.184 26.5522 186.61 26.9897 186.473 27.6255L186.459 27.687H185.311L185.318 27.6118C185.42 26.4428 186.439 25.4995 188.114 25.4995C189.795 25.4995 190.848 26.4087 190.848 27.8305V32.7456H189.659V31.5903H189.631C189.214 32.3696 188.36 32.8823 187.41 32.8823ZM186.261 30.7358C186.261 31.4194 186.822 31.8501 187.676 31.8501C188.797 31.8501 189.659 31.0776 189.659 30.0454V29.4643L187.758 29.5805C186.808 29.6352 186.261 30.0591 186.261 30.7221V30.7358ZM197.554 25.6362V26.6206H195.264V32.7456H194.075V26.6206H191.785V25.6362H197.554ZM59.5503 52.1382V42.6362H60.7397V43.8393H60.7671C61.2114 43.0122 62.0044 42.4995 63.0229 42.4995C64.8413 42.4995 66.0444 43.9487 66.0444 46.1909V46.1977C66.0444 48.4399 64.8276 49.8823 63.0434 49.8823C62.0385 49.8823 61.2114 49.3764 60.7671 48.5561H60.7397V52.1382H59.5503ZM62.7905 48.8296C64.0483 48.8296 64.8276 47.8178 64.8276 46.1977V46.1909C64.8276 44.5571 64.0483 43.5522 62.7905 43.5522C61.5874 43.5522 60.7329 44.5981 60.7329 46.1909V46.1977C60.7329 47.7837 61.5942 48.8296 62.7905 48.8296ZM69.811 41.8296C68.5053 41.8296 67.7329 40.9751 67.7329 39.895V39.8745H68.7104V39.9087C68.7104 40.5171 69.0796 41.0366 69.8178 41.0366C70.5288 41.0366 70.9253 40.5171 70.9253 39.9087V39.8745H71.9028V39.895C71.9028 40.9751 71.1303 41.8296 69.811 41.8296ZM67.8628 52.1382C67.6303 52.1382 67.3774 52.1108 67.227 52.0835V51.1128C67.3296 51.1333 67.4663 51.1538 67.6098 51.1538C68.3618 51.1538 68.7788 50.9624 69.0659 50.1557L69.2094 49.7524L66.5708 42.6362H67.8423L69.8042 48.5561H69.8315L71.8003 42.6362H73.0512L70.2758 50.1899C69.77 51.5503 69.1479 52.1382 67.8628 52.1382ZM77.1801 41.8296C75.8745 41.8296 75.102 40.9751 75.102 39.895V39.8745H76.0796V39.9087C76.0796 40.5171 76.4487 41.0366 77.187 41.0366C77.8979 41.0366 78.2944 40.5171 78.2944 39.9087V39.8745H79.2719V39.895C79.2719 40.9751 78.4995 41.8296 77.1801 41.8296ZM74.1176 49.7456V42.6362H75.3071V47.9204H75.3618L78.9028 42.6362H80.0786V49.7456H78.8891V44.4614H78.8344L75.2934 49.7456H74.1176ZM81.1997 49.7456L83.6196 46.1909L81.2407 42.6362H82.5669L84.2758 45.3022H84.3032L85.9917 42.6362H87.3178L84.9184 46.143L87.2837 49.7456H85.9643L84.2622 47.0386H84.2348L82.519 49.7456H81.1997ZM90.394 49.8823C88.979 49.8823 88.0288 49.0278 88.0288 47.7358V47.7221C88.0288 46.5122 88.9721 45.7534 90.6059 45.6577L92.643 45.5415V44.9468C92.643 44.0786 92.0757 43.5522 91.0844 43.5522C90.1684 43.5522 89.5942 43.9897 89.4575 44.6255L89.4438 44.687H88.2954L88.3022 44.6118C88.4048 43.4428 89.4233 42.4995 91.0981 42.4995C92.7798 42.4995 93.8325 43.4087 93.8325 44.8305V49.7456H92.643V48.5903H92.6157C92.1987 49.3696 91.3442 49.8823 90.394 49.8823ZM89.2456 47.7358C89.2456 48.4194 89.8061 48.8501 90.6606 48.8501C91.7817 48.8501 92.643 48.0776 92.643 47.0454V46.4643L90.7426 46.5805C89.7924 46.6352 89.2456 47.0591 89.2456 47.7221V47.7358ZM100.539 42.6362V43.6206H98.2485V49.7456H97.0591V43.6206H94.769V42.6362H100.539ZM101.639 49.7456V42.6362H102.829V47.9204H102.883L106.424 42.6362H107.6V49.7456H106.411V44.4614H106.356L102.815 49.7456H101.639ZM109.671 51.6938H108.564V48.7612H109.159C109.678 48.4194 109.931 47.5376 109.999 46.5805L110.273 42.6362H115.167V48.7612H116.295V51.6938H115.188V49.7456H109.671V51.6938ZM113.978 48.7612V43.6206H111.319L111.1 46.6079C111.039 47.5034 110.854 48.2759 110.499 48.7339V48.7612H113.978ZM119.447 49.8823C118.032 49.8823 117.082 49.0278 117.082 47.7358V47.7221C117.082 46.5122 118.025 45.7534 119.659 45.6577L121.696 45.5415V44.9468C121.696 44.0786 121.128 43.5522 120.137 43.5522C119.221 43.5522 118.647 43.9897 118.51 44.6255L118.497 44.687H117.348L117.355 44.6118C117.457 43.4428 118.476 42.4995 120.151 42.4995C121.832 42.4995 122.885 43.4087 122.885 44.8305V49.7456H121.696V48.5903H121.668C121.251 49.3696 120.397 49.8823 119.447 49.8823ZM118.298 47.7358C118.298 48.4194 118.859 48.8501 119.713 48.8501C120.834 48.8501 121.696 48.0776 121.696 47.0454V46.4643L119.795 46.5805C118.845 46.6352 118.298 47.0591 118.298 47.7221V47.7358ZM129.195 49.7456V46.5532H125.715V49.7456H124.526V42.6362H125.715V45.5688H129.195V42.6362H130.384V49.7456H129.195ZM137.569 41.8296C136.263 41.8296 135.491 40.9751 135.491 39.895V39.8745H136.468V39.9087C136.468 40.5171 136.837 41.0366 137.576 41.0366C138.287 41.0366 138.683 40.5171 138.683 39.9087V39.8745H139.661V39.895C139.661 40.9751 138.888 41.8296 137.569 41.8296ZM135.621 52.1382C135.388 52.1382 135.135 52.1108 134.985 52.0835V51.1128C135.087 51.1333 135.224 51.1538 135.368 51.1538C136.12 51.1538 136.537 50.9624 136.824 50.1557L136.967 49.7524L134.329 42.6362H135.6L137.562 48.5561H137.589L139.558 42.6362H140.809L138.034 50.1899C137.528 51.5503 136.906 52.1382 135.621 52.1382ZM147.078 42.6362V43.6206H144.788V49.7456H143.598V43.6206H141.308V42.6362H147.078ZM149.641 46.4643H149.368V49.7456H148.178V42.6362H149.368V45.644H149.641L152.444 42.6362H153.886L150.714 45.9995L153.982 49.7456H152.478L149.641 46.4643ZM156.853 49.8823C155.438 49.8823 154.488 49.0278 154.488 47.7358V47.7221C154.488 46.5122 155.431 45.7534 157.065 45.6577L159.102 45.5415V44.9468C159.102 44.0786 158.535 43.5522 157.543 43.5522C156.627 43.5522 156.053 43.9897 155.916 44.6255L155.903 44.687H154.754L154.761 44.6118C154.864 43.4428 155.882 42.4995 157.557 42.4995C159.239 42.4995 160.291 43.4087 160.291 44.8305V49.7456H159.102V48.5903H159.075C158.658 49.3696 157.803 49.8823 156.853 49.8823ZM155.705 47.7358C155.705 48.4194 156.265 48.8501 157.12 48.8501C158.241 48.8501 159.102 48.0776 159.102 47.0454V46.4643L157.202 46.5805C156.251 46.6352 155.705 47.0591 155.705 47.7221V47.7358ZM164.304 49.8823C162.759 49.8823 161.645 49.1167 161.501 47.9546L161.495 47.8999H162.698L162.718 47.9682C162.889 48.563 163.457 48.8979 164.304 48.8979C165.289 48.8979 165.911 48.4468 165.911 47.729V47.7153C165.911 46.9565 165.391 46.6011 164.304 46.6011H163.238V45.6167H164.304C165.248 45.6167 165.719 45.2612 165.719 44.5571V44.5434C165.719 43.8803 165.22 43.4839 164.379 43.4839C163.566 43.4839 162.971 43.8462 162.862 44.3999L162.855 44.4341H161.7L161.707 44.3862C161.871 43.2378 162.903 42.4995 164.379 42.4995C165.931 42.4995 166.881 43.2446 166.881 44.4477V44.4614C166.881 45.2202 166.382 45.8559 165.658 46.02V46.0747C166.574 46.2729 167.08 46.8403 167.08 47.6606V47.6743C167.08 48.9936 165.965 49.8823 164.304 49.8823ZM168.44 49.7456V42.6362H169.629V47.9204H169.684L173.225 42.6362H174.401V49.7456H173.211V44.4614H173.157L169.616 49.7456H168.44ZM176.069 49.7456V42.6362H177.258V48.7612H179.863V42.6362H181.052V48.7612H183.657V42.6362H184.846V49.7456H176.069ZM194.587 42.6362V43.6206H192.297V49.7456H191.108V43.6206H188.818V42.6362H194.587ZM195.688 49.7456V42.6362H196.877V47.9204H196.932L200.473 42.6362H201.649V49.7456H200.459V44.4614H200.405L196.864 49.7456H195.688ZM205.689 49.8823C204.144 49.8823 203.03 49.1167 202.886 47.9546L202.879 47.8999H204.082L204.103 47.9682C204.274 48.563 204.841 48.8979 205.689 48.8979C206.673 48.8979 207.295 48.4468 207.295 47.729V47.7153C207.295 46.9565 206.776 46.6011 205.689 46.6011H204.623V45.6167H205.689C206.632 45.6167 207.104 45.2612 207.104 44.5571V44.5434C207.104 43.8803 206.605 43.4839 205.764 43.4839C204.951 43.4839 204.356 43.8462 204.247 44.3999L204.24 44.4341H203.084L203.091 44.3862C203.255 43.2378 204.288 42.4995 205.764 42.4995C207.316 42.4995 208.266 43.2446 208.266 44.4477V44.4614C208.266 45.2202 207.767 45.8559 207.042 46.02V46.0747C207.958 46.2729 208.464 46.8403 208.464 47.6606V47.6743C208.464 48.9936 207.35 49.8823 205.689 49.8823ZM209.825 49.7456V42.6362H211.014V47.9204H211.069L214.61 42.6362H215.786V49.7456H214.596V44.4614H214.541L211 49.7456H209.825ZM218.643 49.7456H217.454V42.6362H218.91L221.425 48.1733H221.48L224.016 42.6362H225.411V49.7456H224.221V44.7007H224.173L221.883 49.5405H220.974L218.691 44.7007H218.643V49.7456ZM227.079 49.7456V42.6362H228.268V47.9204H228.323L231.864 42.6362H233.04V49.7456H231.85V44.4614H231.795L228.254 49.7456H227.079Z" fill="white"/>
<defs>
<clipPath id="clip0_2211_287">
<rect width="38.7094" height="56.4912" fill="white"/>
</clipPath>
</defs>
</svg>
