<svg width="54" height="54" viewBox="0 0 54 54" fill="none" xmlns="http://www.w3.org/2000/svg">
<rect width="54" height="54" rx="14" fill="#002B5B" fill-opacity="0.05"/>
<path d="M37.8889 39H16.1111C13.6222 39 13 37.0005 13 36V18C13 17.2044 13.3278 16.4413 13.9112 15.8787C14.4947 15.3161 15.286 15 16.1111 15H31.6667C32.4918 15 33.2831 15.3161 33.8666 15.8787C34.45 16.4413 34.7778 17.2044 34.7778 18V27M37.8889 39C36.8513 39 34.7778 38.4 34.7778 36V27M37.8889 39C40.3778 39 41 37.0005 41 36V27H34.7778" stroke="#002B5B" stroke-width="2" stroke-linecap="round" stroke-linejoin="round"/>
</svg>
